<svg width="24" height="25" viewBox="0 0 24 25" fill="none" xmlns="http://www.w3.org/2000/svg">
<path d="M20.926 16.8532V8.8552C20.926 8.1402 20.545 7.4802 19.926 7.1232L13 3.1242C12.381 2.7672 11.619 2.7672 11 3.1242L4.07397 7.1232C3.45497 7.4802 3.07397 8.1412 3.07397 8.8552V16.8522C3.07397 17.5672 3.45497 18.2272 4.07397 18.5842L11 22.5842C11.619 22.9412 12.381 22.9412 13 22.5842L19.926 18.5852C20.545 18.2282 20.926 17.5672 20.926 16.8532Z" stroke="#98C5E9" stroke-width="1.5" stroke-linecap="round" stroke-linejoin="round"/>
<path d="M6.16992 13.4844L9.16992 15.2244" stroke="#98C5E9" stroke-width="1.5" stroke-linecap="round" stroke-linejoin="round"/>
<path d="M3.34192 7.85498L11.9999 12.854L20.6579 7.85498" stroke="#98C5E9" stroke-width="1.5" stroke-linecap="round" stroke-linejoin="round"/>
<path d="M12 22.854V12.854" stroke="#98C5E9" stroke-width="1.5" stroke-linecap="round" stroke-linejoin="round"/>
<path d="M16.329 10.354L7.53699 5.12305" stroke="#98C5E9" stroke-width="1.5" stroke-linecap="round" stroke-linejoin="round"/>
</svg>
